<?xml version="1.0" standalone="no"?>
<svg xmlns:xlink="http://www.w3.org/1999/xlink" id="wave" style="transform:rotate(0deg); transition: 0.3s" viewBox="0 0 1440 370" version="1.1" xmlns="http://www.w3.org/2000/svg"><defs><linearGradient id="sw-gradient-0" x1="0" x2="0" y1="1" y2="0"><stop stop-color="rgba(72.647, 71.412, 166.518, 0.83)" offset="0%"/><stop stop-color="rgba(27, 17, 45, 1)" offset="100%"/></linearGradient></defs><path style="transform:translate(0, 0px); opacity:1" fill="url(#sw-gradient-0)" d="M0,333L30,277.5C60,222,120,111,180,104.8C240,99,300,197,360,197.3C420,197,480,99,540,61.7C600,25,660,49,720,74C780,99,840,123,900,129.5C960,136,1020,123,1080,111C1140,99,1200,86,1260,67.8C1320,49,1380,25,1440,24.7C1500,25,1560,49,1620,98.7C1680,148,1740,222,1800,209.7C1860,197,1920,99,1980,98.7C2040,99,2100,197,2160,252.8C2220,308,2280,321,2340,277.5C2400,234,2460,136,2520,86.3C2580,37,2640,37,2700,86.3C2760,136,2820,234,2880,265.2C2940,296,3000,259,3060,234.3C3120,210,3180,197,3240,203.5C3300,210,3360,234,3420,246.7C3480,259,3540,259,3600,228.2C3660,197,3720,136,3780,129.5C3840,123,3900,173,3960,197.3C4020,222,4080,222,4140,222C4200,222,4260,222,4290,222L4320,222L4320,370L4290,370C4260,370,4200,370,4140,370C4080,370,4020,370,3960,370C3900,370,3840,370,3780,370C3720,370,3660,370,3600,370C3540,370,3480,370,3420,370C3360,370,3300,370,3240,370C3180,370,3120,370,3060,370C3000,370,2940,370,2880,370C2820,370,2760,370,2700,370C2640,370,2580,370,2520,370C2460,370,2400,370,2340,370C2280,370,2220,370,2160,370C2100,370,2040,370,1980,370C1920,370,1860,370,1800,370C1740,370,1680,370,1620,370C1560,370,1500,370,1440,370C1380,370,1320,370,1260,370C1200,370,1140,370,1080,370C1020,370,960,370,900,370C840,370,780,370,720,370C660,370,600,370,540,370C480,370,420,370,360,370C300,370,240,370,180,370C120,370,60,370,30,370L0,370Z"/></svg>